<svg version="1.1" id="Layer_1" xmlns="http://www.w3.org/2000/svg" xmlns:xlink="http://www.w3.org/1999/xlink" x="0px" y="0px"
	 width="100%" viewBox="0 0 64 64" enable-background="new 0 0 64 64" xml:space="preserve">
<path fill="#000000" opacity="1.000000" stroke="none" 
	d="
M65.000000,37.000000 
	C65.000000,46.299179 65.000000,55.598358 65.000000,64.948769 
	C43.778988,64.948769 22.557829,64.948769 1.000000,64.948769 
	C1.000000,55.981899 1.000000,46.959610 1.408661,37.468597 
	C7.023846,36.402683 10.400455,33.276508 13.104479,29.298359 
	C15.204333,30.111658 17.119884,30.592697 19.019865,31.493946 
	C20.094864,33.373207 21.185434,34.832256 22.276003,36.291306 
	C22.638926,36.146351 23.001846,36.001396 23.364769,35.856441 
	C23.364769,38.194191 23.364769,40.531940 23.364769,43.173157 
	C26.166634,40.828377 28.528643,38.851692 31.223801,36.926037 
	C32.357727,37.354031 33.158504,37.730999 34.144753,38.388931 
	C41.087986,39.431862 47.839798,40.261230 54.612038,40.859173 
	C55.348618,40.924206 56.203156,39.653255 57.411907,38.992073 
	C59.546627,38.319599 61.272411,37.657047 63.331112,36.954544 
	C64.109352,36.943062 64.554672,36.971531 65.000000,37.000000 
z"/>
<path fill="#000000" opacity="1.000000" stroke="none" 
	d="
M1.000000,23.000000 
	C1.000000,15.693962 1.000000,8.387924 1.000000,1.040943 
	C22.226568,1.040943 43.453228,1.040943 65.000000,1.040943 
	C65.000000,11.352029 65.000000,21.707355 64.660667,32.589371 
	C63.866226,33.174702 63.411121,33.233341 62.637001,33.200031 
	C61.876789,33.072582 61.435581,33.037083 60.868202,32.656811 
	C58.863697,31.863331 56.985363,31.414621 54.987976,30.628012 
	C49.979725,27.234249 45.087284,24.188089 38.948109,24.596525 
	C35.814804,21.912455 34.506252,16.785772 29.110310,17.153337 
	C29.866562,20.151222 30.474106,22.559605 30.642719,24.988550 
	C28.448847,25.072746 26.693903,25.136379 24.544685,25.142406 
	C19.854397,23.603523 16.645794,26.368565 13.067476,27.490358 
	C12.869534,26.478125 12.832381,25.419168 12.569939,25.360033 
	C8.730948,24.494997 4.861893,23.763391 1.000000,23.000000 
z"/>
<path fill="#AFBFD2" opacity="1.000000" stroke="none" 
	d="
M1.000000,23.399996 
	C4.861893,23.763391 8.730948,24.494997 12.569939,25.360033 
	C12.832381,25.419168 12.869534,26.478125 12.997272,27.750988 
	C12.962115,28.608616 12.941147,28.787357 12.920177,28.966097 
	C10.400455,33.276508 7.023846,36.402683 1.408661,36.999939 
	C1.000000,36.555553 1.000000,36.111111 1.374075,35.327934 
	C3.536381,33.311409 5.324612,31.633612 7.905609,29.212006 
	C5.061537,28.300993 3.030768,27.650496 1.000000,27.000000 
	C1.000000,25.933331 1.000000,24.866661 1.000000,23.399996 
z"/>
<path fill="#000000" opacity="1.000000" stroke="none" 
	d="
M1.000000,27.444164 
	C3.030768,27.650496 5.061537,28.300993 7.905609,29.212006 
	C5.324612,31.633612 3.536381,33.311409 1.374075,34.994606 
	C1.000000,32.629440 1.000000,30.258884 1.000000,27.444164 
z"/>
<path fill="#2E624A" opacity="1.000000" stroke="none" 
	d="
M62.956009,33.291981 
	C63.411121,33.233341 63.866226,33.174702 64.660667,33.058029 
	C65.000000,34.066689 65.000000,35.133377 65.000000,36.600033 
	C64.554672,36.971531 64.109352,36.943062 63.317482,36.583916 
	C62.965961,35.266155 62.960987,34.279068 62.956009,33.291981 
z"/>
<path fill="#397054" opacity="1.000000" stroke="none" 
	d="
M62.637001,33.200031 
	C62.960987,34.279068 62.965961,35.266155 62.984570,36.623871 
	C61.272411,37.657047 59.546627,38.319599 57.285740,38.613655 
	C49.153522,38.199425 41.556404,38.153694 33.959286,38.107964 
	C33.158504,37.730999 32.357727,37.354031 31.216606,36.554085 
	C26.929321,34.445320 22.982380,32.759529 19.035437,31.073738 
	C17.119884,30.592697 15.204333,30.111658 13.104479,29.298359 
	C12.941147,28.787357 12.962115,28.608616 13.053286,28.169247 
	C16.645794,26.368565 19.854397,23.603523 24.560246,25.459816 
	C25.005632,26.257856 25.041187,26.680885 25.088696,27.472504 
	C29.862488,30.126444 34.254539,33.302723 39.947273,33.207909 
	C41.729145,33.178230 43.507607,34.464359 45.322350,34.574116 
	C49.209625,34.809231 53.436008,37.058086 57.230827,33.104794 
	C58.764107,33.061230 59.879242,33.031406 60.994377,33.001583 
	C61.435581,33.037083 61.876789,33.072582 62.637001,33.200031 
z"/>
<path fill="#193D3F" opacity="1.000000" stroke="none" 
	d="
M34.144753,38.388931 
	C41.556404,38.153694 49.153522,38.199425 56.876808,38.623573 
	C56.203156,39.653255 55.348618,40.924206 54.612038,40.859173 
	C47.839798,40.261230 41.087986,39.431862 34.144753,38.388931 
z"/>
<path fill="#AFBFD2" opacity="1.000000" stroke="none" 
	d="
M19.019865,31.493948 
	C22.982380,32.759529 26.929321,34.445320 30.883459,36.503059 
	C28.528643,38.851692 26.166634,40.828377 23.364769,43.173157 
	C23.364769,40.531940 23.364769,38.194191 23.364769,35.856441 
	C23.001846,36.001396 22.638926,36.146351 22.276003,36.291306 
	C21.185434,34.832256 20.094864,33.373207 19.019865,31.493948 
z"/>
<path fill="#1F4247" opacity="1.000000" stroke="none" 
	d="
M25.076744,27.103912 
	C25.041187,26.680885 25.005632,26.257856 24.954517,25.517422 
	C26.693903,25.136379 28.448847,25.072746 31.078011,24.992496 
	C34.274227,24.973297 36.596226,24.970718 38.918224,24.968140 
	C45.087284,24.188089 49.979725,27.234249 54.573811,30.629734 
	C53.178020,31.002523 52.077351,31.035692 50.538116,31.049942 
	C48.132416,30.900679 45.986813,31.233372 44.230350,30.556408 
	C38.036922,28.169376 31.781315,26.493950 25.076744,27.103912 
z"/>
<path fill="#AFBFD2" opacity="1.000000" stroke="none" 
	d="
M38.948109,24.596525 
	C36.596226,24.970718 34.274227,24.973297 31.516939,24.971931 
	C30.474106,22.559605 29.866562,20.151222 29.110310,17.153337 
	C34.506252,16.785772 35.814804,21.912455 38.948109,24.596525 
z"/>
<path fill="#2E624A" opacity="1.000000" stroke="none" 
	d="
M50.976677,31.068861 
	C52.077351,31.035692 53.178020,31.002523 54.692863,30.967632 
	C56.985363,31.414621 58.863697,31.863331 60.868202,32.656811 
	C59.879242,33.031406 58.764107,33.061230 56.840702,33.080498 
	C54.347179,32.402920 52.661930,31.735889 50.976677,31.068861 
z"/>
<path fill="#AFBFD2" opacity="1.000000" stroke="none" 
	d="
M50.538116,31.049942 
	C52.661930,31.735889 54.347179,32.402920 56.422562,33.094246 
	C53.436008,37.058086 49.209625,34.809231 45.322350,34.574116 
	C43.507607,34.464359 41.729145,33.178230 39.947273,33.207909 
	C34.254539,33.302723 29.862488,30.126444 25.088696,27.472504 
	C31.781315,26.493950 38.036922,28.169376 44.230350,30.556408 
	C45.986813,31.233372 48.132416,30.900679 50.538116,31.049942 
z"/>
</svg>